<?xml version="1.0" standalone="no"?>
<!DOCTYPE svg PUBLIC "-//W3C//DTD SVG 20010904//EN"
 "http://www.w3.org/TR/2001/REC-SVG-20010904/DTD/svg10.dtd">
<svg version="1.0" xmlns="http://www.w3.org/2000/svg"
 width="1024.000000pt" height="1024.000000pt" viewBox="0 0 1024.000000 1024.000000"
 preserveAspectRatio="xMidYMid meet">

<g transform="translate(0.000000,1024.000000) scale(0.100000,-0.100000)"
fill="#000000" stroke="none">
<path d="M3053 8114 c-60 -22 -127 -86 -160 -152 l-28 -57 -3 -310 c-3 -357
-10 -334 93 -354 201 -39 373 -203 420 -402 67 -286 -128 -590 -410 -640 -114
-20 -107 4 -103 -344 3 -300 3 -300 29 -356 33 -71 87 -125 158 -158 l56 -26
2020 0 2020 0 47 22 c71 33 131 94 163 165 28 61 28 64 32 317 3 141 1 280 -4
310 l-8 54 -85 27 c-119 37 -184 75 -261 151 -173 171 -204 432 -75 633 69
107 209 206 343 241 93 24 88 4 87 344 -1 250 -4 307 -18 349 -24 70 -87 139
-161 173 l-60 29 -2025 -1 c-1761 0 -2030 -3 -2067 -15z m3062 -539 c25 -24
25 -25 25 -224 l0 -200 -26 -20 c-26 -20 -38 -21 -362 -21 -298 0 -337 -2
-354 -17 -17 -15 -18 -47 -18 -614 l0 -598 -24 -28 -24 -28 -212 0 -212 0 -24
28 -24 28 0 596 c0 541 -2 598 -17 615 -15 17 -39 18 -358 18 l-342 0 -21 23
c-20 21 -21 33 -22 214 -2 195 3 222 38 242 11 7 350 10 985 11 l968 0 24 -25z"/>
<path d="M3095 4500 c-150 -24 -289 -94 -394 -200 -88 -87 -140 -172 -178
-285 -24 -71 -27 -96 -27 -220 0 -167 13 -228 80 -364 39 -78 62 -110 133
-182 72 -73 101 -93 181 -132 266 -130 570 -91 767 98 84 81 84 91 -11 185
-100 99 -100 98 -150 61 -116 -88 -183 -114 -291 -113 -161 1 -294 103 -346
265 -28 86 -29 240 -3 323 51 163 191 264 364 264 94 0 151 -19 246 -81 62
-40 65 -41 90 -25 43 29 138 118 158 149 l19 29 -60 57 c-72 68 -193 134 -285
156 -85 19 -218 26 -293 15z"/>
<path d="M4692 4473 c-17 -15 -379 -485 -435 -565 -15 -21 -16 -2 -16 262 -1
209 -4 289 -13 298 -8 8 -56 12 -150 12 -126 0 -138 -2 -148 -19 -6 -13 -10
-246 -10 -686 0 -440 4 -673 10 -686 10 -17 23 -19 150 -19 127 0 140 2 150
19 6 12 10 95 10 201 l0 181 66 74 67 73 195 -274 195 -274 176 2 c171 3 176
4 175 24 0 12 -92 150 -205 308 -112 157 -232 326 -266 375 l-63 88 240 284
c145 173 239 292 240 305 0 12 -7 25 -16 28 -9 3 -87 6 -174 6 -136 0 -161 -2
-178 -17z"/>
<path d="M8302 4474 c-8 -6 -13 -19 -10 -30 3 -10 111 -205 241 -433 l237
-413 0 -252 c0 -183 3 -255 12 -264 8 -8 55 -12 145 -12 121 0 133 2 143 19 6
12 10 117 10 271 l0 251 156 277 c304 538 316 561 310 577 -5 13 -29 15 -168
13 l-163 -3 -141 -280 c-78 -153 -145 -280 -150 -281 -5 -1 -70 121 -144 273
-74 151 -140 279 -146 284 -16 13 -314 17 -332 3z"/>
<path d="M686 4464 c-8 -20 -8 -238 0 -258 5 -14 32 -16 200 -16 l194 0 0
-541 c0 -353 4 -547 10 -560 10 -17 22 -19 145 -19 123 0 135 2 145 19 6 13
10 207 10 560 l0 541 188 2 187 3 0 140 0 140 -536 3 c-483 2 -537 1 -543 -14z"/>
<path d="M1982 4468 c-16 -16 -17 -1349 -2 -1379 10 -17 22 -19 148 -19 94 0
142 4 150 12 17 17 17 1369 0 1386 -17 17 -279 17 -296 0z"/>
<path d="M5302 4468 c-19 -19 -17 -1371 2 -1387 14 -11 154 -14 648 -12 210 1
249 3 262 17 13 12 16 38 16 120 0 58 -5 114 -10 125 -10 18 -24 19 -315 19
l-305 0 0 150 0 150 254 0 c218 0 257 2 270 16 12 12 16 38 16 115 0 55 -5
109 -10 120 -10 18 -24 19 -270 19 l-260 0 0 140 0 140 288 0 c211 0 291 3
300 12 8 8 12 51 12 128 0 77 -4 120 -12 128 -17 17 -869 17 -886 0z"/>
<path d="M6381 4466 c-8 -9 -11 -56 -9 -142 l3 -129 193 -3 192 -2 0 -541 c0
-353 4 -547 10 -560 10 -17 22 -19 145 -19 123 0 135 2 145 19 6 13 10 207 10
560 l0 541 184 0 c154 0 187 3 200 16 13 12 16 38 16 119 0 57 -4 115 -10 129
l-10 26 -529 0 c-439 0 -531 -2 -540 -14z"/>
<path d="M7656 4464 c-3 -9 -6 -320 -6 -693 0 -513 3 -680 12 -689 9 -9 115
-12 414 -12 344 0 403 2 414 15 15 19 14 233 -2 252 -8 10 -69 13 -264 13
l-254 0 0 553 c0 417 -3 556 -12 565 -8 8 -57 12 -154 12 -120 0 -143 -2 -148
-16z"/>
</g>
</svg>
